<?xml version="1.0" standalone="no"?>
<!DOCTYPE svg PUBLIC "-//W3C//DTD SVG 20010904//EN"
 "http://www.w3.org/TR/2001/REC-SVG-20010904/DTD/svg10.dtd">
<svg version="1.0" xmlns="http://www.w3.org/2000/svg"
 width="600.000000pt" height="600.000000pt" viewBox="0 0 600.000000 600.000000"
 preserveAspectRatio="xMidYMid meet">

<g transform="translate(0.000000,600.000000) scale(0.100000,-0.100000)"
fill="#000000" stroke="none">
<path d="M0 4610 l0 -1390 63 0 c35 0 89 -5 120 -10 31 -6 87 -13 124 -16 100
-9 1242 -11 1353 -4 209 15 390 33 390 40 0 10 -37 20 -85 21 -43 1 -104 16
-72 18 10 1 31 11 47 23 21 15 46 22 81 23 28 1 53 6 57 12 5 7 27 2 67 -17
41 -19 53 -29 38 -29 -16 -1 -23 -7 -23 -22 0 -20 5 -20 98 -19 53 2 165 9
247 17 83 8 159 15 170 15 11 0 34 4 50 9 17 5 77 13 135 18 58 6 148 17 200
26 167 28 284 46 335 51 28 3 66 9 85 14 19 5 73 16 120 25 47 9 104 21 127
26 23 5 58 9 77 9 19 0 46 4 60 10 14 5 75 16 136 25 62 8 133 22 158 30 26 8
100 26 166 40 65 14 124 29 130 34 7 6 48 17 92 25 120 23 233 57 263 80 8 6
28 11 45 12 67 4 329 85 461 143 11 5 38 16 60 24 75 28 373 172 395 192 8 7
29 20 45 28 54 28 108 85 102 108 -3 12 0 22 9 26 8 3 14 15 14 27 0 34 33
116 47 116 10 0 13 42 13 195 0 195 0 196 -21 185 -11 -7 -28 -8 -37 -5 -29
12 -76 12 -102 -1 -14 -7 -42 -14 -63 -15 -29 -3 -40 1 -52 18 -10 15 -29 23
-62 26 -27 3 -62 9 -80 12 -23 5 -42 1 -71 -15 -38 -22 -40 -22 -61 -4 -12 11
-43 26 -69 34 -40 13 -48 20 -52 45 -10 54 -2 68 39 61 20 -3 60 -6 89 -6 45
0 55 -3 59 -20 6 -22 23 -26 39 -10 16 16 183 36 212 25 14 -5 14 -7 2 -15 -8
-6 -10 -10 -5 -10 6 0 21 7 33 16 12 8 22 14 23 12 0 -2 2 -15 4 -30 4 -27 2
-28 -45 -28 -40 0 -49 3 -53 22 -5 18 -8 19 -21 9 -11 -10 -23 -10 -44 -3 -18
6 -35 6 -43 1 -23 -15 18 -39 68 -39 32 0 45 -5 53 -20 8 -15 21 -20 50 -20
21 0 41 4 44 8 2 4 23 9 45 10 30 2 46 -3 61 -18 12 -12 29 -20 38 -18 16 3
17 50 20 616 l2 612 -2131 0 -2131 0 8 -37 c4 -21 8 -50 9 -64 1 -14 9 -39 17
-56 l15 -31 -66 -6 c-87 -9 -901 -9 -923 -1 -14 6 -15 10 -5 26 9 15 9 23 0
39 -16 24 -1 70 22 70 27 0 16 17 -15 24 -18 3 -30 12 -30 21 0 13 -47 15
-385 15 l-385 0 0 -1390z m688 1117 c3 -25 1 -27 -31 -27 -34 0 -52 -17 -39
-37 4 -5 24 -13 46 -16 21 -3 41 -9 45 -12 3 -4 6 -33 6 -65 1 -66 7 -79 30
-60 13 11 15 32 11 121 -2 60 -1 111 3 113 4 3 43 6 86 7 l80 2 0 -144 c0
-144 0 -144 -24 -147 -39 -6 -45 12 -46 120 0 87 -3 103 -16 106 -15 3 -16 -8
-11 -86 4 -77 2 -93 -14 -116 -21 -29 -71 -36 -80 -11 -8 19 -28 19 -44 0 -10
-12 -29 -15 -79 -13 l-66 3 0 140 0 140 55 6 c79 9 85 7 88 -24z m422 23 c15
-8 17 -16 11 -37 -4 -16 -6 -76 -5 -135 3 -106 2 -108 -21 -114 -37 -9 -47 4
-45 55 3 64 2 71 -15 71 -10 0 -15 -16 -17 -62 -3 -60 -4 -63 -28 -63 l-25 0
-1 127 c-1 69 2 132 7 139 4 7 32 16 61 20 29 3 54 7 56 8 2 0 12 -3 22 -9z
m598 -144 l-3 -141 -30 0 -30 0 0 60 c0 47 -3 60 -15 60 -11 0 -15 -13 -16
-55 -1 -57 -16 -79 -47 -67 -14 5 -16 24 -13 137 2 72 7 134 11 138 8 8 115
19 133 14 10 -4 12 -37 10 -146z m191 145 c10 -7 13 -39 12 -142 -1 -74 -6
-138 -11 -143 -5 -5 -20 -6 -34 -2 -24 6 -26 11 -26 61 0 54 -14 79 -31 54 -5
-8 -8 -36 -7 -64 3 -41 0 -50 -15 -53 -34 -7 -43 13 -36 80 3 35 4 88 1 118
-5 66 11 86 73 93 22 2 45 4 50 5 6 1 16 -2 24 -7z m197 -2 c3 -6 7 -72 8
-145 2 -132 2 -135 -20 -140 -36 -9 -44 3 -44 67 0 46 -3 59 -15 59 -17 0 -17
-3 -19 -75 -1 -46 -3 -50 -26 -50 l-25 0 -1 127 c-2 144 2 154 71 161 22 2 45
4 52 5 6 1 15 -3 19 -9z m202 -137 c2 -134 2 -141 -18 -147 -44 -14 -57 1 -56
63 1 44 -2 57 -14 57 -12 0 -15 -13 -15 -57 0 -65 -5 -73 -41 -64 -25 7 -26 9
-20 54 4 26 12 59 18 74 8 22 7 31 -6 44 -20 19 -14 68 11 96 15 16 60 25 113
22 l25 -1 3 -141z m188 136 c10 -7 10 -247 -1 -276 -3 -7 -15 -12 -27 -10 -21
3 -23 9 -26 66 -4 92 -37 81 -37 -13 0 -47 -2 -50 -27 -53 l-27 -3 2 138 2
138 31 10 c35 11 94 13 110 3z m211 -136 l2 -142 -26 -6 c-32 -9 -45 10 -40
57 6 43 -5 64 -27 56 -14 -6 -16 -16 -10 -56 7 -54 -2 -67 -41 -57 -22 6 -24
10 -20 59 2 28 7 64 11 80 3 15 2 33 -5 41 -14 16 -4 71 16 88 15 12 92 27
123 24 12 -1 15 -25 17 -144z m178 140 c6 -4 8 -59 5 -147 l-5 -140 -25 0
c-23 0 -25 4 -28 50 -4 69 -8 80 -27 65 -12 -10 -14 -24 -9 -61 6 -41 4 -50
-11 -55 -36 -14 -50 9 -46 72 2 33 3 73 2 89 -2 69 0 100 8 108 5 5 33 12 62
17 30 4 56 8 59 9 3 0 10 -3 15 -7z m210 -135 c1 -76 -2 -143 -6 -149 -6 -9
-16 -10 -36 -2 -27 9 -28 12 -25 63 4 47 2 52 -15 49 -15 -3 -18 -12 -15 -56
2 -47 1 -52 -22 -58 -14 -3 -30 -3 -35 1 -14 8 -14 112 -1 120 13 8 13 48 -1
62 -7 7 -7 22 1 52 11 43 18 47 90 54 69 8 65 15 65 -136z m192 131 c5 -7 6
-73 3 -148 l-5 -135 -30 0 -30 0 0 60 c0 47 -3 60 -15 60 -12 0 -15 -14 -16
-60 -1 -59 -1 -60 -30 -60 l-29 0 2 65 c3 78 3 103 1 152 -2 47 10 60 64 69
66 10 75 10 85 -3z m184 0 c13 -11 14 -37 11 -150 -4 -133 -5 -138 -25 -138
-42 0 -50 14 -42 67 5 41 3 51 -9 56 -24 9 -35 -20 -24 -66 10 -44 0 -59 -37
-55 -25 4 -32 65 -14 121 9 29 10 43 0 63 -9 20 -9 35 -1 60 12 34 21 39 85
47 17 2 33 5 36 6 3 0 12 -5 20 -11z m206 0 c13 -16 7 -268 -6 -281 -5 -5 -19
-7 -32 -5 -21 3 -24 8 -25 53 -1 70 -2 77 -16 73 -8 -3 -15 -29 -18 -64 -5
-55 -7 -59 -30 -59 -24 0 -25 3 -24 55 1 30 3 66 4 80 1 14 -1 44 -5 67 -11
61 9 75 131 91 6 1 16 -4 21 -10z m203 1 c3 -4 3 -69 0 -145 l-5 -139 -25 0
c-24 0 -25 3 -28 63 -3 53 -6 63 -20 60 -14 -3 -17 -14 -14 -61 2 -53 0 -57
-22 -63 -39 -10 -46 1 -40 69 5 58 5 90 2 127 -4 47 4 70 26 82 26 13 117 18
126 7z m201 3 c1 -4 2 -67 3 -140 2 -145 -3 -159 -50 -148 -25 7 -26 9 -20 60
6 44 4 55 -9 60 -21 8 -29 -15 -22 -70 4 -40 2 -45 -19 -50 -12 -3 -28 -3 -33
1 -15 8 -14 98 1 130 9 19 9 28 0 37 -27 27 -8 103 29 116 26 9 119 12 120 4z
m184 -142 l0 -145 -25 0 c-23 0 -25 4 -30 58 -3 31 -8 57 -12 57 -5 0 -12 0
-18 0 -6 0 -10 -27 -10 -61 0 -60 0 -60 -27 -57 -27 3 -28 5 -26 53 1 64 2
131 1 173 -1 43 12 55 70 63 82 11 77 21 77 -141z m202 138 c12 -17 7 -268 -6
-281 -5 -5 -22 -6 -37 -3 -26 7 -26 9 -20 60 5 42 3 55 -9 60 -21 8 -30 -12
-30 -69 0 -47 -2 -50 -27 -53 -28 -3 -28 -2 -28 52 0 30 5 67 12 81 9 19 9 28
0 37 -17 17 -15 69 3 95 11 16 28 23 63 26 26 2 52 4 58 5 6 1 16 -4 21 -10z
m199 -136 c2 -141 2 -142 -21 -148 -37 -9 -45 3 -45 67 0 81 -23 76 -30 -7 -5
-55 -7 -59 -30 -59 l-25 0 0 129 0 129 29 16 c16 9 50 16 75 16 l46 0 1 -143z
m190 136 c5 -7 7 -74 4 -148 -5 -132 -6 -135 -28 -138 -38 -6 -50 12 -44 67 3
38 1 49 -12 54 -18 7 -18 5 -20 -68 -1 -39 -5 -50 -19 -53 -45 -9 -56 49 -25
131 8 20 8 31 -1 40 -17 17 -13 71 7 95 12 13 34 22 63 25 24 2 49 4 55 5 6 1
15 -4 20 -10z m201 -48 c0 -30 -1 -97 -4 -148 l-5 -93 -27 3 c-25 3 -26 6 -29
66 -4 82 -25 79 -32 -4 -5 -55 -7 -59 -30 -59 l-25 0 -1 127 c-2 144 0 147 69
159 78 13 82 11 84 -51z m201 -88 c2 -125 1 -143 -14 -149 -33 -12 -49 11 -46
67 3 45 1 51 -15 48 -14 -3 -18 -13 -18 -52 0 -52 -18 -75 -48 -63 -14 5 -16
24 -14 131 2 83 6 129 15 138 11 11 90 27 122 24 12 -1 15 -26 18 -144z m190
1 l3 -142 -25 -7 c-38 -9 -46 2 -46 67 0 81 -23 76 -30 -7 -5 -55 -7 -59 -30
-59 l-25 0 -2 132 -1 131 26 11 c30 11 76 19 107 17 19 -1 20 -9 23 -143z
m-4118 -2 c0 -88 -4 -142 -11 -146 -5 -4 -20 -4 -33 -1 -21 5 -22 10 -18 61 4
50 3 55 -16 55 -18 0 -21 -7 -24 -57 -3 -54 -5 -58 -28 -58 -24 0 -25 2 -23
65 1 36 1 74 1 85 -6 124 2 135 94 135 l58 0 0 -139z m200 -1 l0 -140 -24 -6
c-40 -10 -49 3 -43 57 4 33 2 51 -8 59 -19 16 -29 -4 -29 -65 -1 -47 -3 -50
-28 -53 l-28 -3 0 65 c0 36 5 68 10 71 7 4 7 12 0 25 -16 29 -12 91 7 112 12
14 31 18 80 18 l63 0 0 -140z m477 -206 c-3 -3 -12 -4 -19 -1 -8 3 -5 6 6 6
11 1 17 -2 13 -5z m-688 -55 c-15 -9 -32 -2 -24 11 3 5 13 6 21 3 12 -4 13 -8
3 -14z m254 12 c16 -2 5 -21 -16 -26 -26 -7 -77 10 -77 25 0 8 37 8 93 1z
m1712 -40 c3 -6 -11 -13 -31 -17 -26 -5 -40 -2 -52 10 -15 15 -13 16 30 16 26
0 49 -4 53 -9z m75 -6 c16 -19 4 -35 -25 -35 -27 0 -39 14 -31 35 7 19 40 19
56 0z m-2206 -10 c-7 -18 -41 -28 -75 -23 -15 2 -30 -5 -40 -16 -15 -19 -16
-19 -38 3 -20 20 -20 22 -4 27 10 3 27 9 38 14 11 5 43 9 72 9 43 1 51 -2 47
-14z m296 -17 c0 -7 -15 -8 -40 -4 -22 3 -40 3 -40 -2 0 -4 -13 -13 -30 -19
-19 -7 -30 -8 -30 -1 0 15 29 40 39 33 5 -3 12 -2 15 3 7 11 86 2 86 -10z
m-225 -28 c3 -5 1 -10 -4 -10 -6 0 -11 5 -11 10 0 6 2 10 4 10 3 0 8 -4 11
-10z m4555 0 c0 -6 -25 -9 -57 -8 l-58 1 55 7 c30 4 56 7 58 8 1 1 2 -2 2 -8z
m191 -2 c0 -10 2 -10 6 0 7 17 23 15 23 -3 0 -12 -15 -15 -79 -15 -74 0 -100
7 -84 24 12 12 133 7 134 -6z m-5221 -17 c0 -10 -24 -21 -46 -21 -8 0 -14 7
-14 15 0 10 10 15 30 15 17 0 30 -4 30 -9z m4900 -10 c0 -5 -8 -10 -17 -9 -96
2 -228 -5 -271 -14 -41 -9 -58 -9 -73 0 -26 16 -96 15 -102 -1 -10 -26 -377
-31 -377 -5 0 5 19 8 43 8 146 -3 231 1 241 9 15 12 66 15 339 19 143 3 217 0
217 -7z m190 -20 c0 -14 -64 -34 -68 -21 -2 5 -28 10 -58 10 -91 0 -60 15 36
18 50 1 90 -2 90 -7z m-1060 -11 c22 -7 21 -8 -12 -9 -21 -1 -38 4 -38 9 0 11
14 11 50 0z m-73 -22 c-2 -9 -28 -13 -78 -14 -89 -1 -113 9 -44 17 92 11 127
10 122 -3z m843 2 c0 -5 -4 -10 -10 -10 -5 0 -10 5 -10 10 0 6 5 10 10 10 6 0
10 -4 10 -10z m-5020 -29 c0 -12 -37 -24 -50 -16 -20 12 -10 25 20 25 17 0 30
-4 30 -9z m3900 -62 c0 -4 -21 -11 -47 -15 -27 -3 -59 -12 -73 -19 -14 -7 -39
-15 -56 -18 -28 -5 -31 -4 -27 13 4 13 14 20 30 20 13 0 34 6 46 12 58 33 127
37 127 7z m470 -3 c0 -8 -4 -17 -9 -21 -12 -7 -24 12 -16 25 9 15 25 12 25 -4z
m-4170 -14 c0 -5 20 -15 45 -21 47 -12 53 -31 11 -31 -13 0 -29 -7 -36 -15
-11 -13 -17 -12 -46 10 -18 14 -42 25 -53 25 -21 0 -35 15 -27 28 7 12 106 15
106 4z m560 -58 c0 -8 -5 -12 -10 -9 -6 4 -8 11 -5 16 9 14 15 11 15 -7z
m3700 -9 c0 -13 -29 -29 -37 -21 -3 2 0 14 7 25 11 22 30 20 30 -4z m-175 -4
c6 -11 -32 -41 -52 -41 -16 0 -17 22 -1 38 14 14 44 16 53 3z m1116 -20 c0 -3
3 -17 5 -31 4 -23 1 -26 -28 -28 -46 -3 -61 9 -53 41 6 22 12 26 41 25 19 -1
34 -4 35 -7z m-1021 -46 c0 -5 -67 -35 -78 -35 -3 0 3 9 13 20 16 17 65 29 65
15z m640 -25 c0 -5 -4 -10 -10 -10 -5 0 -10 5 -10 10 0 6 5 10 10 10 6 0 10
-4 10 -10z m-4013 -60 c-12 -32 -34 -38 -68 -20 -42 23 -18 45 53 49 25 1 26
0 15 -29z m87 5 c11 -8 28 -12 38 -9 11 3 30 -1 43 -10 16 -10 35 -14 54 -10
24 5 31 3 31 -8 0 -12 -17 -16 -86 -17 -78 -1 -88 1 -105 22 -34 41 -16 63 25
32z m206 -6 c0 -5 -7 -9 -15 -9 -8 0 -15 7 -15 15 0 9 6 12 15 9 8 -4 15 -10
15 -15z m1145 2 c6 -11 -40 -61 -55 -61 -19 0 -10 38 13 53 26 19 34 20 42 8z
m1820 -11 c-3 -5 -19 -10 -36 -10 -33 0 -37 -11 -12 -40 11 -13 24 -18 39 -14
22 6 42 -20 24 -31 -10 -6 -42 5 -51 17 -3 5 -18 10 -32 12 -33 3 -61 26 -48
39 20 20 57 35 89 36 20 1 31 -3 27 -9z m41 -125 c-7 -27 4 -31 67 -26 28 2
36 -12 15 -26 -7 -4 -33 -10 -58 -14 -25 -4 -54 -9 -65 -11 -11 -2 -24 -8 -30
-14 -5 -7 -20 -15 -33 -19 -21 -6 -23 -4 -20 16 2 14 14 29 31 37 15 7 27 17
27 22 0 5 9 11 19 15 11 3 23 15 26 26 9 29 28 24 21 -6z m-3479 -1 c-3 -3
-12 -4 -19 -1 -8 3 -5 6 6 6 11 1 17 -2 13 -5z m678 -75 c-8 -12 -35 -12 -35
0 0 11 22 20 33 14 4 -2 5 -9 2 -14z m3165 -19 c0 -15 -29 -31 -52 -28 -31 4
-29 30 2 38 27 7 50 2 50 -10z m730 3 c0 -10 -12 -26 -26 -37 -31 -22 -50 -9
-40 28 5 21 13 26 36 26 22 0 30 -5 30 -17z m-232 -24 c-5 -14 -68 -41 -68
-29 0 12 41 40 58 40 8 0 12 -5 10 -11z m92 -8 c0 -13 -8 -17 -47 -26 -21 -4
-33 -3 -33 4 0 6 15 15 33 20 43 12 47 13 47 2z m-1087 -18 c-3 -7 -11 -13
-18 -13 -7 0 -15 -7 -19 -15 -6 -17 -46 -21 -46 -5 0 6 -6 10 -12 10 -7 0 -20
5 -28 10 -25 17 6 28 70 27 42 -1 56 -5 53 -14z m-2565 -25 c-5 -32 -28 -35
-28 -4 0 17 5 26 16 26 10 0 14 -7 12 -22z m2322 15 c0 -14 -34 -43 -50 -43
-10 0 -23 6 -29 14 -10 11 -8 17 6 25 20 12 73 15 73 4z m1124 -18 c-16 -24
-48 -33 -58 -17 -11 18 19 40 57 41 16 1 16 -1 1 -24z m-580 1 c-6 -15 -91
-43 -101 -33 -3 4 3 9 13 12 10 3 30 12 44 20 33 18 51 18 44 1z m686 -16 c0
-11 -42 -30 -66 -30 -25 0 -15 16 19 27 44 14 47 14 47 3z m-2770 -15 c11 -13
5 -15 -49 -15 -69 0 -83 17 -18 23 23 2 45 4 48 5 4 1 12 -5 19 -13z m1565
-25 c3 -5 -1 -10 -9 -10 -9 0 -16 5 -16 10 0 6 4 10 9 10 6 0 13 -4 16 -10z
m995 0 c0 -5 -2 -10 -4 -10 -3 0 -8 5 -11 10 -3 6 -1 10 4 10 6 0 11 -4 11
-10z m-3460 -25 c-7 -8 -20 -15 -29 -15 -9 0 -29 -7 -45 -15 -35 -19 -187 -22
-169 -4 7 7 41 13 76 14 36 1 71 6 78 11 11 7 58 18 93 23 5 0 3 -6 -4 -14z
m734 -5 c54 -20 17 -40 -61 -32 -34 3 -43 8 -43 23 0 15 7 19 39 19 22 0 51
-4 65 -10z m-1004 -30 c0 -5 -9 -10 -20 -10 -11 0 -20 5 -20 10 0 6 9 10 20
10 11 0 20 -4 20 -10z m2153 -101 c12 -7 26 -18 30 -25 4 -8 15 -14 24 -14 18
0 53 -28 53 -42 0 -17 -40 -7 -69 18 -29 24 -31 24 -56 8 -20 -13 -31 -14 -48
-6 -21 10 -21 11 11 22 24 9 30 16 23 23 -26 26 -5 35 32 16z m-2343 -49 c0
-14 -59 -42 -78 -37 -11 3 -6 7 15 12 21 5 30 12 26 21 -3 9 2 14 16 14 12 0
21 -4 21 -10z m3495 -15 c-39 -32 -55 -32 -25 0 13 14 31 25 39 25 11 0 6 -8
-14 -25z m640 -20 c0 -5 -18 -11 -40 -13 -38 -2 -39 -1 -20 13 21 17 60 17 60
0z m-4522 -57 c19 -18 38 -48 42 -66 7 -32 6 -33 -14 -23 -12 7 -21 16 -21 21
0 18 -35 11 -53 -10 -22 -26 -37 -18 -37 21 0 20 -5 29 -16 29 -8 0 -12 5 -8
11 4 8 9 8 17 0 16 -16 47 -13 47 4 0 8 -7 15 -15 15 -9 0 -12 6 -9 15 9 23
29 18 67 -17z m2727 23 c0 -4 -11 -6 -25 -3 -14 2 -25 6 -25 8 0 2 11 4 25 4
14 0 25 -4 25 -9z m1861 -18 c12 -15 12 -16 -4 -10 -10 4 -23 7 -28 7 -5 0 -9
5 -9 10 0 16 26 12 41 -7z m-4061 -3 c23 -15 -5 -30 -60 -30 -25 0 -58 -7 -74
-15 -23 -12 -36 -13 -67 -3 -41 12 -44 15 -31 35 12 20 205 31 232 13z m2120
-4 c6 -8 21 -16 32 -18 28 -4 36 -28 10 -28 -17 0 -72 41 -72 55 0 10 18 5 30
-9z m160 -6 c-20 -13 -47 -13 -55 0 -4 6 9 10 32 10 28 0 34 -3 23 -10z m-426
-51 c-7 -12 -54 -12 -54 0 0 11 30 19 47 13 7 -2 10 -8 7 -13z m440 5 c20 -8
21 -30 1 -38 -16 -6 -105 24 -105 36 0 9 81 11 104 2z m666 -4 c13 -9 12 -13
-9 -30 -13 -11 -31 -20 -40 -20 -10 0 -26 -7 -37 -15 -10 -8 -31 -15 -46 -15
-26 0 -88 29 -88 41 0 14 60 30 91 24 23 -4 40 -1 54 9 23 18 54 20 75 6z
m-1215 -20 c-3 -5 -15 -10 -25 -10 -10 0 -20 -5 -22 -10 -2 -6 -21 -13 -43
-16 -22 -3 -44 -9 -49 -14 -17 -17 -56 -12 -50 5 4 8 12 15 20 15 8 0 22 8 32
18 19 19 149 31 137 12z m843 -6 c12 -4 25 -17 28 -30 3 -13 9 -23 13 -22 14
3 61 -26 61 -39 0 -24 -45 -37 -80 -23 -31 13 -38 24 -20 35 6 3 10 14 10 24
0 15 -6 18 -31 15 -41 -5 -52 3 -39 27 11 20 21 22 58 13z m-461 -30 c-3 -3
-12 -4 -19 -1 -8 3 -5 6 6 6 11 1 17 -2 13 -5z m-722 -24 c-3 -5 -10 -10 -16
-10 -5 0 -9 5 -9 10 0 6 7 10 16 10 8 0 12 -4 9 -10z m-75 -10 c0 -5 -4 -10
-10 -10 -5 0 -10 5 -10 10 0 6 5 10 10 10 6 0 10 -4 10 -10z m17 -12 c-3 -8
-6 -5 -6 6 -1 11 2 17 5 13 3 -3 4 -12 1 -19z m476 5 c-7 -2 -21 -2 -30 0 -10
3 -4 5 12 5 17 0 24 -2 18 -5z m-565 -40 c5 -18 -10 -16 -34 2 -18 15 -18 15
5 13 14 -2 26 -9 29 -15z m457 7 c-3 -5 -15 -10 -26 -10 -10 0 -19 5 -19 10 0
6 12 10 26 10 14 0 23 -4 19 -10z m-347 -35 c12 -14 31 -25 42 -25 13 0 20 -7
20 -18 0 -10 3 -22 8 -27 4 -6 3 -7 -1 -4 -5 4 -26 5 -47 2 -30 -4 -45 0 -66
16 l-27 21 29 1 29 1 -27 11 c-29 11 -37 32 -15 40 24 10 34 7 55 -18z m-128
-30 c0 -8 7 -15 15 -15 8 0 15 -4 15 -10 0 -13 -13 -13 -47 2 -37 16 -36 15
-28 27 10 16 45 13 45 -4z m1870 -201 c0 -2 -12 -4 -27 -4 -21 0 -24 3 -14 9
13 8 41 5 41 -5z m-65 -14 c3 -6 -1 -13 -10 -16 -19 -8 -30 0 -20 15 8 14 22
14 30 1z m-1524 -19 c-12 -8 -51 -4 -51 5 0 2 15 4 33 4 22 0 28 -3 18 -9z
m1139 -20 c0 -25 -11 -32 -38 -24 -24 6 -30 28 -9 36 28 12 47 7 47 -12z m210
0 c0 -6 -5 -13 -10 -16 -15 -9 -43 3 -35 15 8 13 45 13 45 1z m-1174 -22 c52
-8 89 -20 113 -36 34 -24 41 -25 146 -19 120 6 216 -2 222 -20 4 -12 -57 -22
-154 -26 -24 -1 -43 -5 -43 -9 0 -9 64 -12 190 -9 67 1 82 -1 73 -11 -8 -8
-41 -12 -89 -12 -55 1 -82 -4 -92 -14 -8 -8 -21 -12 -29 -8 -9 3 -42 -4 -74
-16 -50 -18 -61 -20 -75 -8 -9 7 -32 12 -51 10 -19 -1 -41 3 -49 10 -11 9 -21
9 -39 1 -25 -11 -42 -1 -30 17 7 13 -27 31 -59 31 -14 0 -50 -11 -80 -25 -61
-28 -149 -33 -179 -11 -15 12 -15 15 -2 26 21 17 19 40 -3 40 -10 0 -22 -3
-26 -7 -3 -4 -17 -8 -29 -10 -12 -2 -44 -10 -71 -19 -46 -15 -112 -11 -101 6
2 4 29 10 60 12 38 3 62 11 78 26 13 12 31 22 40 22 28 0 19 19 -15 33 -33 14
-33 14 -9 22 18 5 26 3 34 -10 8 -15 19 -16 76 -11 36 4 91 13 121 20 30 8 58
14 62 15 4 1 42 -4 84 -10z m-466 -43 c-25 -15 -45 -12 -35 5 4 5 18 9 33 9
l27 -1 -25 -13z m-85 -36 c3 -5 -1 -10 -9 -10 -9 0 -16 5 -16 10 0 6 4 10 9
10 6 0 13 -4 16 -10z m3 -59 c4 -11 -6 -11 -63 -1 -5 1 1 6 15 10 31 10 42 8
48 -9z m492 -81 c0 -5 -7 -10 -15 -10 -8 0 -15 5 -15 10 0 6 7 10 15 10 8 0
15 -4 15 -10z m140 0 c0 -5 -7 -10 -15 -10 -8 0 -15 5 -15 10 0 6 7 10 15 10
8 0 15 -4 15 -10z m-2310 -65 c11 -13 8 -15 -14 -15 -16 0 -26 5 -26 15 0 8 6
15 14 15 7 0 19 -7 26 -15z m-70 -29 c0 -3 -4 -8 -10 -11 -5 -3 -10 -1 -10 4
0 6 5 11 10 11 6 0 10 -2 10 -4z m-1010 -36 c0 -5 -5 -10 -11 -10 -5 0 -7 5
-4 10 3 6 8 10 11 10 2 0 4 -4 4 -10z m1770 -40 c25 -14 -38 -24 -66 -11 -38
17 -30 33 14 25 20 -4 44 -10 52 -14z"/>
<path d="M610 5565 c0 -23 6 -38 16 -42 21 -8 31 11 26 47 -3 21 -10 30 -23
30 -15 0 -19 -7 -19 -35z"/>
<path d="M1017 5688 c-6 -21 4 -48 19 -48 9 0 14 11 14 30 0 30 -24 43 -33 18z"/>
<path d="M1604 5686 c-8 -21 3 -36 27 -36 15 0 20 6 17 22 -4 27 -35 37 -44
14z"/>
<path d="M1807 5693 c-13 -12 -7 -41 9 -47 21 -8 21 -8 28 10 10 25 -20 55
-37 37z"/>
<path d="M2005 5690 c-10 -16 5 -50 21 -50 9 0 14 11 14 30 0 30 -21 42 -35
20z"/>
<path d="M2194 5686 c-8 -22 3 -49 19 -43 6 2 12 14 12 27 0 27 -22 39 -31 16z"/>
<path d="M2397 5688 c-6 -21 4 -48 19 -48 9 0 14 11 14 30 0 30 -24 43 -33 18z"/>
<path d="M2594 5685 c-9 -23 4 -47 23 -43 22 4 30 38 11 49 -19 13 -28 11 -34
-6z"/>
<path d="M2784 5685 c-9 -21 3 -45 21 -45 10 0 15 10 15 30 0 32 -26 43 -36
15z"/>
<path d="M2980 5671 c0 -28 21 -37 36 -16 16 22 10 35 -17 35 -12 0 -19 -7
-19 -19z"/>
<path d="M3184 5686 c-8 -22 3 -49 19 -43 6 2 12 14 12 27 0 27 -22 39 -31 16z"/>
<path d="M3370 5685 c-11 -13 -11 -19 3 -33 20 -19 41 -5 35 24 -4 24 -22 28
-38 9z"/>
<path d="M3574 5686 c-8 -22 3 -49 19 -43 6 2 12 14 12 27 0 27 -22 39 -31 16z"/>
<path d="M3774 5685 c-8 -21 3 -48 19 -43 19 7 22 58 2 58 -8 0 -18 -7 -21
-15z"/>
<path d="M3977 5693 c-11 -10 -8 -41 4 -49 6 -3 18 1 27 9 13 13 13 19 2 31
-14 17 -23 20 -33 9z"/>
<path d="M4164 5686 c-8 -22 3 -49 19 -43 6 2 12 14 12 27 0 27 -22 39 -31 16z"/>
<path d="M4356 5683 c-4 -9 -1 -23 7 -30 12 -12 16 -12 26 1 16 19 8 46 -13
46 -7 0 -17 -8 -20 -17z"/>
<path d="M4567 5693 c-13 -12 -7 -53 7 -53 20 0 29 16 21 40 -6 20 -17 25 -28
13z"/>
<path d="M4746 5685 c-6 -17 2 -45 14 -45 4 0 13 7 20 15 10 12 10 18 0 30 -7
8 -16 15 -20 15 -4 0 -10 -7 -14 -15z"/>
<path d="M4946 5685 c-7 -20 3 -45 19 -45 16 0 26 25 19 45 -4 8 -12 15 -19
15 -7 0 -15 -7 -19 -15z"/>
<path d="M5151 5687 c-15 -19 -3 -49 18 -45 9 2 16 13 16 27 0 29 -17 37 -34
18z"/>
<path d="M5335 5680 c-8 -24 1 -40 21 -40 9 0 14 11 14 30 0 35 -25 42 -35 10z"/>
<path d="M1224 5686 c-8 -22 3 -49 19 -43 6 2 12 14 12 27 0 27 -22 39 -31 16z"/>
<path d="M1417 5693 c-12 -12 -7 -41 7 -46 22 -9 41 19 26 38 -14 16 -23 19
-33 8z"/>
<path d="M3485 3530 c-3 -5 1 -10 10 -10 9 0 13 5 10 10 -3 6 -8 10 -10 10 -2
0 -7 -4 -10 -10z"/>
<path d="M1514 5918 c3 -7 9 -21 12 -30 9 -26 24 -22 24 6 0 13 -7 27 -16 30
-23 9 -26 8 -20 -6z"/>
<path d="M5959 4054 c-7 -8 -30 -24 -51 -35 -22 -11 -41 -26 -45 -34 -6 -18
-87 -55 -118 -55 -12 0 -28 -7 -35 -15 -7 -8 -21 -15 -31 -15 -10 0 -21 -5
-25 -11 -6 -10 -8 -20 -13 -66 0 -8 -15 -13 -33 -13 -25 0 -40 -8 -60 -32 -21
-25 -28 -29 -28 -15 0 11 -8 17 -22 17 -17 0 -19 3 -9 9 22 14 -4 21 -33 8
-27 -13 -36 -37 -12 -37 7 0 16 -9 19 -20 8 -32 -16 -39 -120 -32 -13 1 -23 9
-23 17 0 16 -35 21 -45 6 -3 -5 -19 -12 -35 -16 -26 -6 -29 -10 -24 -31 4 -14
2 -24 -5 -24 -6 0 -11 -7 -11 -15 0 -9 9 -15 23 -15 30 0 53 -15 37 -25 -10
-6 -35 -3 -85 12 -16 5 -18 3 -9 -8 29 -35 -29 -88 -71 -66 -18 10 -45 12
-178 16 -43 1 -46 18 -6 38 l24 13 -30 0 c-17 0 -36 -5 -43 -12 -6 -6 -28 -11
-49 -10 -20 1 -40 -3 -44 -9 -4 -6 -27 -14 -53 -16 -26 -3 -49 -10 -52 -14 -3
-5 -16 -9 -30 -9 -13 0 -24 -4 -24 -8 0 -11 -61 -32 -93 -32 -30 0 -44 -15
-21 -24 12 -4 14 -13 10 -32 -4 -14 -2 -31 3 -38 8 -9 6 -18 -3 -32 -13 -17
-18 -17 -48 -6 -19 6 -53 10 -77 8 -30 -3 -44 0 -48 10 -3 9 -21 14 -52 15
-35 0 -41 2 -26 9 17 7 17 9 3 9 -10 1 -18 5 -18 10 0 5 -15 4 -35 -2 -33 -10
-34 -11 -18 -29 9 -10 20 -18 25 -18 5 0 16 -6 24 -14 9 -10 26 -13 49 -9 l35
6 0 -42 0 -41 -80 0 c-50 0 -80 4 -80 11 0 5 -5 7 -12 3 -7 -4 -21 -8 -32 -9
-12 -1 -25 -3 -31 -5 -23 -6 -35 1 -35 20 0 23 -10 25 -29 8 -11 -11 -13 -10
-8 5 4 9 2 17 -3 17 -6 0 -10 -7 -10 -16 0 -12 -4 -14 -12 -7 -20 16 -111 12
-124 -5 -11 -15 -98 -27 -89 -12 3 5 1 11 -5 15 -18 11 -11 25 13 26 12 0 16
3 10 6 -7 2 -29 -1 -49 -7 -34 -11 -35 -13 -18 -31 9 -10 21 -16 27 -12 6 3 7
1 3 -5 -4 -7 -36 -13 -74 -13 -37 -1 -57 -4 -44 -6 24 -5 29 -19 10 -26 -8 -3
-3 -9 12 -15 14 -6 19 -11 12 -11 -7 -1 -11 -5 -8 -10 9 -15 -15 -18 -92 -12
-84 7 -100 -2 -99 -56 0 -39 -8 -50 -26 -34 -10 8 -37 9 -90 3 -65 -7 -77 -6
-80 7 -3 9 -5 4 -6 -11 0 -16 -5 -28 -11 -28 -10 0 -15 48 -12 101 1 15 -4 29
-11 32 -10 4 -14 -11 -15 -61 0 -39 -5 -68 -12 -70 -6 -2 -8 -16 -4 -37 5 -28
2 -35 -24 -54 -34 -23 -57 -20 -65 10 -5 17 -13 20 -59 17 l-53 -3 2 -47 2
-48 -57 0 c-31 0 -114 3 -184 7 -115 5 -128 8 -128 25 0 10 -7 18 -15 18 -9 0
-12 -6 -9 -15 7 -18 9 -18 -85 -20 -83 -2 -104 -17 -99 -68 l3 -28 -354 0
c-358 -1 -401 -5 -401 -38 0 -12 -3 -12 -12 -3 -14 14 -68 16 -68 2 0 -5 -7
-10 -16 -10 -8 0 -12 5 -9 10 3 5 -1 10 -9 10 -9 0 -16 -4 -16 -10 0 -18 -25
-11 -38 11 -11 16 -21 20 -60 17 -41 -3 -47 -6 -44 -23 2 -17 -3 -20 -38 -21
-35 -1 -41 2 -46 23 -6 23 -10 25 -44 19 -45 -7 -68 11 -51 42 7 14 7 24 -2
35 -10 14 -36 17 -164 18 -84 0 -156 -2 -162 -5 -5 -3 -20 -2 -33 3 -19 7 -23
15 -23 52 l0 44 -45 -3 c-25 -1 -70 -1 -100 0 -30 2 -176 2 -325 1 -148 -2
-294 -3 -322 -3 l-53 0 0 -295 0 -295 48 -2 c26 -1 69 -3 96 -4 27 -1 52 -7
56 -14 4 -7 32 -11 71 -10 35 0 127 -4 203 -9 77 -5 145 -7 152 -4 7 2 22 -5
34 -17 14 -14 28 -19 41 -15 11 4 19 2 19 -6 0 -9 3 -9 14 0 10 8 85 10 262 7
466 -9 586 -6 609 17 37 37 101 15 111 -39 5 -25 11 -34 23 -31 9 2 15 9 13
16 -3 16 28 42 44 36 7 -2 21 3 33 12 16 11 32 13 59 7 43 -9 72 -6 89 8 7 5
61 10 120 9 59 0 117 -1 128 -1 51 0 135 13 135 20 0 5 19 8 43 8 36 -1 73 2
167 13 8 1 45 -1 81 -5 55 -5 68 -3 73 9 5 13 19 15 88 9 72 -6 83 -4 95 12
10 14 30 18 104 21 64 2 104 9 135 23 34 16 49 18 64 10 29 -15 187 -5 238 15
27 11 57 16 81 12 42 -5 56 0 56 23 0 15 33 17 65 3 20 -8 52 -4 68 9 7 6 39
10 72 9 56 -1 61 1 70 24 11 29 44 33 59 8 12 -19 18 -15 46 32 9 14 14 15 38
4 21 -9 30 -10 39 -1 7 7 20 12 29 12 9 0 19 7 23 15 7 20 43 19 54 -1 8 -14
10 -14 21 0 8 9 19 16 26 16 7 0 17 6 24 13 6 8 26 12 51 10 27 -2 46 3 59 14
20 17 64 26 55 12 -6 -11 14 -21 26 -14 7 4 3 14 -10 25 -18 16 -19 18 -4 24
10 4 20 2 24 -4 4 -7 29 2 69 25 35 19 67 35 72 35 13 0 11 -28 -3 -32 -9 -3
-9 -6 -1 -11 7 -4 24 4 39 18 15 14 35 25 44 25 10 0 23 6 29 14 6 8 26 16 44
20 78 13 121 24 104 25 -10 0 -15 6 -12 11 9 15 35 12 35 -4 0 -8 7 -17 16
-20 23 -9 27 -8 21 8 -5 14 -1 17 56 35 21 7 27 6 27 -5 0 -8 5 -14 10 -14 13
0 13 6 0 31 -9 16 -7 21 16 29 14 6 41 8 59 4 23 -4 36 -2 41 8 11 17 39 29
48 20 10 -9 49 -10 66 -2 8 5 15 18 15 30 0 32 41 46 55 20 14 -27 36 -25 56
5 13 20 23 24 57 22 22 -2 42 -8 45 -15 7 -21 18 -13 31 23 12 35 41 49 41 20
0 -8 9 -15 19 -15 30 0 35 19 6 26 -33 8 -32 17 9 59 35 36 60 44 69 23 4 -8
8 -5 12 9 7 21 14 22 90 11 16 -2 21 3 23 30 3 31 3 32 -22 20 -14 -6 -26 -14
-26 -18 0 -4 -9 -10 -20 -13 -17 -4 -19 -1 -14 21 9 36 10 37 73 62 30 12 65
32 77 46 13 13 30 24 39 24 9 0 31 11 49 25 18 14 40 25 49 25 18 0 37 29 30
47 -2 7 5 18 16 25 20 12 21 21 21 300 0 238 -2 288 -14 288 -7 0 -19 -7 -27
-16z m-621 -359 c26 -13 30 -20 23 -37 -7 -20 -22 -24 -70 -19 -14 2 -19 24
-10 49 10 26 16 27 57 7z m-553 -145 c3 -5 -1 -10 -10 -10 -9 0 -13 5 -10 10
3 6 8 10 10 10 2 0 7 -4 10 -10z m100 1 c3 -6 3 -27 -1 -49 l-6 -38 -116 0
c-66 1 -120 5 -124 11 -4 6 -8 2 -8 -7 0 -13 -8 -18 -30 -18 -16 0 -30 5 -30
10 0 6 9 10 19 10 10 0 21 7 25 15 3 8 15 15 26 15 12 0 28 7 37 15 11 11 27
14 58 10 31 -3 48 -1 59 10 19 19 36 19 36 0 0 -8 5 -15 11 -15 6 0 9 6 6 14
-9 24 24 38 38 17z m-565 -345 c0 -2 -9 -6 -20 -9 -11 -3 -18 -1 -14 4 5 9 34
13 34 5z m-667 -93 c-7 -2 -19 -2 -25 0 -7 3 -2 5 12 5 14 0 19 -2 13 -5z
m1797 -3 c0 -5 -4 -10 -9 -10 -6 0 -13 5 -16 10 -3 6 1 10 9 10 9 0 16 -4 16
-10z m-2204 -67 l7 -27 9 25 c9 22 10 23 19 6 14 -25 4 -47 -21 -47 -19 0 -40
32 -40 61 0 21 20 7 26 -18z m-346 -198 c0 -8 -9 -15 -20 -15 -22 0 -27 15 -7
23 21 9 27 7 27 -8z m-1410 -95 c0 -5 -4 -10 -10 -10 -5 0 -10 5 -10 10 0 6 5
10 10 10 6 0 10 -4 10 -10z m754 -28 c3 -5 -1 -9 -9 -9 -8 0 -15 4 -15 9 0 4
4 8 9 8 6 0 12 -4 15 -8z m-731 -24 c48 1 87 -3 87 -7 0 -5 -6 -11 -12 -13
-25 -7 -216 -3 -224 5 -13 12 18 28 41 21 11 -3 59 -6 108 -6z m551 6 c28 -11
6 -24 -40 -24 -32 0 -44 4 -44 15 0 16 52 21 84 9z"/>
<path d="M4823 3503 c-7 -2 -13 -9 -13 -15 0 -12 41 -6 41 7 1 12 -11 15 -28
8z"/>
<path d="M5562 3853 c-18 -7 -4 -23 19 -23 12 0 19 5 17 12 -5 14 -18 18 -36
11z"/>
<path d="M5380 3760 c-21 -7 -21 -8 -5 -9 11 0 27 4 35 9 18 11 5 11 -30 0z"/>
<path d="M5120 3679 c0 -5 -4 -8 -9 -5 -5 3 -20 -3 -34 -14 -14 -11 -39 -20
-56 -20 -27 0 -31 -3 -29 -25 1 -14 6 -25 10 -25 12 0 62 23 78 36 8 7 34 17
58 23 50 14 58 41 12 41 -16 0 -30 -5 -30 -11z"/>
<path d="M5118 3613 c7 -3 16 -2 19 1 4 3 -2 6 -13 5 -11 0 -14 -3 -6 -6z"/>
<path d="M4320 3455 c0 -15 12 -18 66 -15 20 1 33 -4 37 -14 8 -20 31 -21 47
-1 10 12 6 15 -29 21 -23 4 -41 10 -41 15 0 5 -18 9 -40 9 -29 0 -40 -4 -40
-15z"/>
<path d="M4100 3396 c0 -21 21 -31 31 -15 14 22 11 29 -11 29 -11 0 -20 -6
-20 -14z"/>
<path d="M4013 3393 c-20 -7 -15 -33 6 -33 11 0 22 4 25 9 8 12 -16 29 -31 24z"/>
<path d="M3917 3374 c-10 -11 3 -24 24 -24 10 0 19 7 19 15 0 15 -31 21 -43 9z"/>
<path d="M4067 3353 c-9 -2 -15 -9 -12 -14 9 -13 43 -11 47 3 4 10 14 8 41 -7
20 -10 39 -16 42 -13 4 3 -8 13 -26 22 -31 16 -57 18 -92 9z"/>
<path d="M3637 3314 c-14 -14 -7 -35 11 -32 9 2 17 10 17 17 0 16 -18 25 -28
15z"/>
<path d="M4070 3308 c0 -11 38 -10 44 1 3 5 -5 8 -19 7 -14 0 -25 -4 -25 -8z"/>
<path d="M4248 3313 c7 -3 16 -2 19 1 4 3 -2 6 -13 5 -11 0 -14 -3 -6 -6z"/>
<path d="M5845 3301 c-3 -5 -1 -12 5 -16 12 -7 30 2 30 16 0 12 -27 12 -35 0z"/>
<path d="M2073 3275 c10 -7 27 -11 38 -8 27 7 15 16 -24 19 -29 2 -30 1 -14
-11z"/>
<path d="M3400 3276 c0 -9 9 -14 20 -13 24 2 26 13 4 21 -22 8 -24 8 -24 -8z"/>
<path d="M3450 3270 c0 -5 5 -10 10 -10 6 0 10 5 10 10 0 6 -4 10 -10 10 -5 0
-10 -4 -10 -10z"/>
<path d="M5720 3270 c0 -5 4 -10 9 -10 6 0 13 5 16 10 3 6 -1 10 -9 10 -9 0
-16 -4 -16 -10z"/>
<path d="M3513 3263 c-28 -4 -33 -8 -32 -31 0 -15 3 -21 6 -14 7 17 23 15 23
-3 0 -9 9 -15 23 -14 16 1 18 2 5 6 -10 2 -18 14 -18 25 0 17 5 20 40 16 43
-4 54 6 18 16 -13 3 -25 5 -28 4 -3 -1 -20 -3 -37 -5z"/>
<path d="M3305 3250 c-3 -5 3 -10 14 -10 12 0 21 5 21 10 0 6 -6 10 -14 10 -8
0 -18 -4 -21 -10z"/>
<path d="M5770 3250 c20 -13 50 -13 50 0 0 6 -15 10 -32 10 -25 0 -29 -3 -18
-10z"/>
<path d="M3075 3210 c-4 -6 6 -10 22 -10 22 0 25 2 13 10 -19 12 -27 12 -35 0z"/>
<path d="M3320 3160 c-12 -8 -12 -10 3 -16 22 -8 50 3 42 16 -8 12 -25 13 -45
0z"/>
<path d="M5611 3151 c-15 -10 -11 -53 5 -58 14 -5 26 36 16 53 -4 8 -13 10
-21 5z"/>
<path d="M5566 3115 c4 -8 10 -15 15 -15 4 0 6 7 3 15 -4 8 -10 15 -15 15 -4
0 -6 -7 -3 -15z"/>
<path d="M40 3090 c-22 -7 -21 -8 13 -9 23 -1 36 3 32 9 -7 11 -10 11 -45 0z"/>
<path d="M284 3089 c-3 -5 4 -9 15 -9 12 0 21 -7 21 -15 0 -8 4 -15 10 -15 12
0 32 38 23 43 -14 8 -63 5 -69 -4z"/>
<path d="M147 3083 c-6 -10 19 -34 26 -26 8 7 -3 33 -13 33 -5 0 -11 -3 -13
-7z"/>
<path d="M975 3070 c-4 -6 5 -10 20 -10 15 0 24 4 20 10 -3 6 -12 10 -20 10
-8 0 -17 -4 -20 -10z"/>
<path d="M1360 3070 c0 -5 9 -10 20 -10 11 0 20 5 20 10 0 6 -9 10 -20 10 -11
0 -20 -4 -20 -10z"/>
<path d="M2830 3053 c0 -15 4 -35 10 -43 8 -13 10 -13 14 0 14 36 11 64 -6 68
-14 3 -18 -3 -18 -25z"/>
<path d="M2880 3070 c0 -5 24 -10 54 -10 30 0 58 5 61 10 4 6 -17 10 -54 10
-34 0 -61 -4 -61 -10z"/>
<path d="M3040 3070 c0 -5 18 -10 40 -10 29 0 40 -4 40 -15 0 -18 16 -20 26
-3 5 7 2 9 -7 4 -8 -4 -6 -1 4 7 27 23 21 27 -43 27 -33 0 -60 -4 -60 -10z"/>
<path d="M1465 3020 c-3 -5 1 -10 9 -10 9 0 16 5 16 10 0 6 -4 10 -9 10 -6 0
-13 -4 -16 -10z"/>
<path d="M1060 3010 c0 -5 9 -10 20 -10 11 0 20 5 20 10 0 6 -9 10 -20 10 -11
0 -20 -4 -20 -10z"/>
<path d="M1425 3010 c3 -5 8 -10 11 -10 2 0 4 5 4 10 0 6 -5 10 -11 10 -5 0
-7 -4 -4 -10z"/>
<path d="M974 2978 c-8 -13 -5 -15 51 -20 28 -3 42 -4 33 -1 -10 2 -18 10 -18
16 0 14 -58 18 -66 5z"/>
<path d="M2170 2975 c0 -8 5 -15 10 -15 6 0 10 7 10 15 0 8 -4 15 -10 15 -5 0
-10 -7 -10 -15z"/>
<path d="M2720 2976 c0 -9 5 -16 10 -16 6 0 10 4 10 9 0 6 -4 13 -10 16 -5 3
-10 -1 -10 -9z"/>
<path d="M2798 2982 c-40 -5 -34 -22 7 -22 19 0 35 4 35 9 0 14 -11 17 -42 13z"/>
<path d="M2871 2974 c0 -11 3 -14 6 -6 3 7 2 16 -1 19 -3 4 -6 -2 -5 -13z"/>
<path d="M915 2970 c-17 -7 -15 -9 13 -9 17 -1 32 4 32 9 0 12 -17 12 -45 0z"/>
<path d="M2400 2956 c0 -9 5 -16 10 -16 6 0 10 4 10 9 0 6 -4 13 -10 16 -5 3
-10 -1 -10 -9z"/>
<path d="M2200 2950 c0 -5 4 -10 9 -10 6 0 13 5 16 10 3 6 -1 10 -9 10 -9 0
-16 -4 -16 -10z"/>
<path d="M2540 2950 c0 -5 5 -10 10 -10 6 0 10 5 10 10 0 6 -4 10 -10 10 -5 0
-10 -4 -10 -10z"/>
<path d="M2080 2890 c0 -5 5 -10 11 -10 5 0 7 5 4 10 -3 6 -8 10 -11 10 -2 0
-4 -4 -4 -10z"/>
<path d="M2115 2890 c-3 -5 3 -10 15 -10 12 0 18 5 15 10 -3 6 -10 10 -15 10
-5 0 -12 -4 -15 -10z"/>
<path d="M2160 2890 c0 -5 7 -10 16 -10 8 0 12 5 9 10 -3 6 -10 10 -16 10 -5
0 -9 -4 -9 -10z"/>
<path d="M1888 2873 c6 -2 18 -2 25 0 6 3 1 5 -13 5 -14 0 -19 -2 -12 -5z"/>
<path d="M2401 2864 c0 -11 3 -14 6 -6 3 7 2 16 -1 19 -3 4 -6 -2 -5 -13z"/>
<path d="M5413 2859 c-15 -5 -23 -17 -23 -32 0 -13 -18 -42 -40 -67 -22 -24
-43 -53 -46 -65 -4 -11 -21 -34 -38 -51 -17 -16 -46 -47 -64 -67 -19 -20 -40
-37 -48 -37 -8 0 -14 -7 -14 -15 0 -9 -16 -23 -35 -32 -19 -9 -35 -20 -35 -24
0 -4 -9 -9 -20 -12 -11 -3 -24 -17 -30 -31 -8 -23 -15 -26 -56 -26 -37 0 -47
-4 -51 -20 -3 -11 -9 -20 -14 -20 -4 0 -25 -18 -46 -40 -22 -22 -56 -46 -78
-53 -27 -10 -42 -21 -46 -38 -5 -21 -7 -22 -14 -6 -7 17 -8 17 -27 0 -17 -15
-18 -19 -4 -29 13 -9 9 -14 -24 -27 -45 -17 -50 -35 -20 -62 17 -16 18 -20 6
-27 -15 -8 -46 -1 -46 11 0 4 -10 7 -22 5 -13 -1 -28 -3 -33 -3 -6 -1 -25 -14
-42 -30 -17 -15 -39 -31 -48 -35 -11 -4 -14 -12 -10 -26 9 -28 -23 -37 -122
-34 -69 1 -84 -1 -99 -17 -9 -10 -39 -26 -68 -35 -28 -9 -60 -22 -71 -28 -11
-6 -31 -11 -45 -11 -17 0 -26 -6 -28 -20 -5 -25 -49 -65 -74 -65 -10 0 -18 -6
-18 -14 0 -19 -55 -37 -82 -27 -13 5 -31 3 -47 -5 -34 -18 -55 -4 -70 48 -7
24 -17 50 -22 58 -4 8 -17 34 -28 58 -11 23 -25 42 -30 42 -24 0 -8 27 29 50
72 44 60 77 -30 82 -48 3 -56 6 -68 31 -7 15 -17 27 -22 27 -5 0 -16 16 -26
35 -15 32 -15 36 0 50 34 34 10 105 -35 105 -30 0 -43 -9 -58 -39 -11 -19 -18
-22 -42 -17 -25 5 -29 3 -29 -18 0 -13 -7 -29 -15 -36 -8 -7 -16 -20 -16 -29
-1 -9 -5 0 -8 20 -6 34 -7 35 -36 27 -16 -4 -39 -15 -49 -23 -18 -13 -18 -19
-7 -68 9 -41 9 -64 0 -98 -6 -24 -14 -66 -16 -92 -3 -29 -11 -51 -19 -54 -8
-3 -14 -14 -14 -24 0 -10 -9 -28 -21 -40 -16 -16 -19 -28 -15 -54 5 -26 1 -39
-18 -61 -21 -25 -22 -31 -9 -43 9 -8 12 -21 8 -35 -4 -11 -7 -30 -8 -41 0 -11
-6 -23 -11 -27 -8 -6 -7 -11 2 -16 8 -5 11 -19 8 -33 -3 -13 -1 -60 5 -104 6
-44 10 -110 9 -147 0 -50 3 -68 13 -68 8 0 14 -14 15 -36 2 -29 -1 -37 -18
-41 -11 -3 -20 -13 -20 -23 0 -26 -24 -42 -54 -34 -16 4 -32 1 -41 -6 -18 -15
-10 -30 16 -30 11 0 19 -7 19 -17 0 -14 6 -11 24 12 14 17 28 26 33 21 4 -5 2
-11 -4 -13 -7 -3 -13 -14 -12 -26 0 -21 1 -21 9 -2 l9 20 0 -20 c1 -25 -48
-85 -55 -67 -8 17 -51 15 -58 -3 -7 -18 -42 -20 -49 -2 -3 6 -6 3 -6 -8 -1
-21 8 -23 112 -24 45 -1 48 -2 45 -23 -2 -19 -10 -24 -45 -26 -37 -3 -42 -6
-48 -32 -5 -24 -10 -27 -31 -21 -32 8 -104 2 -104 -10 0 -8 72 -14 108 -10 6
1 12 -4 12 -12 0 -12 34 -15 175 -19 160 -4 197 -9 183 -23 -7 -8 -342 -13
-358 -5 -8 4 -64 4 -124 0 -109 -6 -109 -6 -138 -40 l-28 -34 0 31 c0 17 -6
32 -12 34 -7 2 -89 2 -182 -1 l-168 -5 0 -278 c1 -152 4 -282 7 -288 4 -6 66
-9 162 -8 120 1 164 4 189 17 31 14 35 14 55 -4 20 -18 40 -19 514 -15 324 2
495 -1 499 -7 3 -6 -7 -13 -24 -17 -27 -6 -52 -25 -33 -25 4 0 7 -20 5 -45
l-4 -45 299 0 298 0 10 23 c8 18 18 22 60 23 87 2 95 4 112 24 12 14 30 20 57
20 26 0 37 3 30 10 -8 8 -184 15 -457 19 -28 1 -46 5 -42 11 3 5 195 9 490 10
305 0 494 4 511 10 19 8 31 7 38 0 15 -15 358 -14 374 2 9 9 12 84 12 274 0
144 -3 269 -6 278 -4 10 -18 16 -35 16 -28 0 -29 2 -29 50 l0 50 -129 0 c-123
0 -129 -1 -134 -21 -3 -12 -3 -35 0 -51 l6 -30 -626 4 c-344 2 -629 6 -633 10
-13 13 0 18 67 24 85 8 101 13 69 26 -20 7 -22 11 -10 18 12 8 12 10 -2 15
-20 8 -41 -2 -33 -15 8 -13 -32 -22 -65 -15 -19 4 -30 13 -30 23 0 10 -9 23
-20 30 -25 15 -26 42 -2 40 9 -1 39 2 66 6 40 7 56 5 84 -10 26 -14 36 -16 40
-6 5 15 39 16 44 1 4 -11 98 9 98 22 0 3 -8 13 -18 22 -15 13 -44 17 -162 17
-189 2 -190 2 -183 48 3 21 6 38 7 39 5 7 89 15 171 16 l99 2 9 -37 c5 -21 15
-38 22 -38 18 0 55 48 55 71 0 19 45 48 77 50 18 1 16 2 -25 15 -10 3 -9 9 3
28 l16 24 25 -25 24 -24 33 34 c17 19 39 36 47 39 24 9 0 38 -44 56 -30 12
-43 13 -57 4 -23 -15 -59 -16 -59 -2 0 15 -19 12 -36 -5 -20 -19 -85 -19 -131
0 -27 12 -44 13 -63 6 -14 -6 -45 -9 -70 -8 -55 2 -60 22 -12 47 18 10 29 20
25 23 -13 8 -63 -4 -63 -15 0 -5 -13 0 -30 12 -16 12 -30 30 -30 41 0 10 -5
39 -12 63 -11 43 -11 45 20 71 45 37 41 49 -13 41 -43 -7 -45 -6 -51 21 -3 15
-12 47 -20 69 -16 50 -9 115 12 107 8 -3 14 1 14 8 0 8 4 7 13 -4 11 -17 19
-17 126 -2 62 9 126 13 142 10 16 -4 29 -3 29 2 0 17 94 52 155 59 46 5 77 17
133 50 40 23 83 46 95 50 29 9 125 62 156 85 13 11 29 19 35 19 6 0 25 7 41
16 17 9 55 29 86 45 31 15 61 35 69 43 7 9 17 16 22 16 17 0 100 79 168 160
25 29 55 64 68 77 12 13 22 32 22 41 1 20 23 52 36 52 5 0 20 18 34 40 14 22
28 40 32 40 5 0 8 9 8 20 0 13 5 18 15 14 10 -4 19 7 31 35 14 35 20 40 39 35
28 -7 40 9 20 26 -11 9 -12 16 -2 31 6 10 17 19 24 19 15 0 17 16 3 25 -10 6
-7 20 17 73 8 18 13 43 11 56 -3 20 -7 22 -25 15z m-1512 -1622 c-13 -13 -26
-3 -16 12 3 6 11 8 17 5 6 -4 6 -10 -1 -17z m89 -132 c0 -24 -78 -33 -127 -14
-26 10 -26 12 -8 19 35 13 135 10 135 -5z m197 -71 c-3 -3 -12 -4 -19 -1 -8 3
-5 6 6 6 11 1 17 -2 13 -5z m-1002 -124 c3 -5 -3 -10 -14 -10 -12 0 -21 5 -21
10 0 6 6 10 14 10 8 0 18 -4 21 -10z m534 -73 c14 -18 5 -26 -20 -20 -20 5
-24 15 -12 26 10 10 19 8 32 -6z m-479 -36 c0 -5 8 -12 18 -14 9 -3 0 -5 -20
-6 -37 -1 -51 12 -25 22 19 8 27 8 27 -2z m2037 -41 c10 -11 21 -20 26 -20 5
0 20 9 34 20 34 26 53 25 53 -3 0 -29 -33 -57 -75 -64 -26 -4 -38 0 -64 26
-31 31 -37 42 -24 54 12 13 33 7 50 -13z m-1737 -19 c0 -6 -31 -9 -70 -9 -38
1 -70 5 -70 10 0 4 32 8 70 8 39 0 70 -4 70 -9z m-555 -80 c53 -31 60 -59 59
-227 0 -99 -5 -162 -13 -182 -18 -43 -71 -72 -129 -72 -49 1 -68 9 -118 48
l-29 24 0 171 c0 189 4 204 58 237 41 25 130 26 172 1z m867 -54 c-9 -18 -22
7 -21 41 l0 37 13 -35 c7 -19 11 -38 8 -43z m-1200 38 c17 -38 -4 -55 -68 -55
-49 0 -54 -2 -60 -25 -10 -39 11 -55 72 -55 44 0 58 -5 79 -25 24 -25 25 -32
25 -134 0 -103 -1 -109 -26 -132 -24 -22 -35 -24 -150 -28 l-124 -3 0 241 0
241 120 0 c118 0 121 0 132 -25z m528 -75 c5 -90 6 -95 29 -98 l23 -4 -3 99
-4 98 65 0 65 0 0 -95 c0 -82 2 -95 18 -98 18 -4 17 -8 22 128 4 75 0 71 58
68 l52 -3 -3 -95 c-2 -52 -6 -98 -9 -103 -3 -4 -17 -13 -31 -18 l-25 -10 32
-27 c33 -27 33 -28 34 -122 l2 -95 -52 -3 c-45 -3 -53 0 -53 15 -1 70 -9 186
-14 190 -3 3 -12 3 -20 0 -13 -5 -15 -24 -13 -104 l2 -98 -64 0 -64 0 2 98 2
97 -25 0 c-25 0 -25 -1 -28 -97 l-3 -98 -54 -3 -53 -3 6 33 c4 18 9 65 13 103
4 60 9 73 32 92 l26 21 -27 11 c-26 10 -28 14 -28 73 0 35 -4 78 -10 97 -5 19
-7 38 -4 43 3 5 27 8 52 6 l47 -3 5 -95z m585 55 c0 -39 -1 -40 -40 -45 -30
-4 -40 -9 -39 -22 4 -84 2 -80 33 -73 36 8 51 -14 42 -60 -6 -26 -10 -30 -41
-30 l-35 0 0 -55 0 -55 45 0 45 0 0 -45 0 -45 -110 0 -110 0 -2 225 c-1 124 0
231 2 238 4 9 31 12 107 10 l103 -3 0 -40z m283 -52 c2 -72 6 -93 17 -93 20 0
27 33 23 113 l-3 72 55 3 c30 1 60 -1 65 -5 6 -5 8 -90 5 -238 l-5 -230 -60 0
-60 0 0 100 c0 86 -2 100 -17 103 -15 3 -18 -9 -20 -100 l-3 -103 -63 -3 -62
-3 0 234 c1 129 4 238 8 241 3 4 31 6 62 4 l55 -3 3 -92z m444 37 c5 -30 13
-86 20 -125 6 -38 14 -108 17 -155 5 -65 9 -85 21 -85 10 0 18 21 26 75 18
109 16 186 -4 262 -11 37 -16 72 -12 78 4 7 29 10 61 8 l54 -3 3 -52 c2 -36 7
-53 16 -53 17 0 26 22 26 65 0 37 12 45 71 45 37 0 39 -1 39 -32 0 -18 -7 -55
-15 -82 -8 -27 -15 -65 -15 -85 0 -42 26 -160 48 -213 22 -55 12 -68 -52 -68
l-55 0 -12 59 c-20 105 -41 109 -49 8 l-5 -62 -105 -3 c-137 -4 -150 0 -150
41 0 73 -47 77 -52 5 l-3 -43 -63 -3 c-68 -3 -87 12 -64 49 7 10 17 74 22 141
6 68 15 139 20 158 6 19 10 57 10 83 l0 48 97 -3 98 -3 7 -55z m475 48 c4 -7
10 -59 13 -115 5 -97 12 -125 27 -110 3 4 9 57 11 117 4 104 6 111 27 116 12
3 36 4 51 2 l29 -3 -2 -80 c-2 -126 -23 -296 -40 -338 -19 -43 -38 -51 -128
-52 -54 0 -60 2 -63 22 -2 14 4 27 16 34 21 13 22 36 1 127 -12 56 -49 263
-49 280 0 8 16 12 49 12 29 0 53 -5 58 -12z m300 4 c8 -5 11 -26 8 -62 -5 -73
2 -105 21 -89 8 6 14 21 14 33 0 35 25 107 41 117 17 11 99 12 99 2 0 -5 1
-111 2 -238 l2 -230 -55 0 -54 0 3 76 c3 53 0 79 -8 84 -15 9 -30 -12 -30 -41
0 -11 -7 -44 -16 -73 l-15 -52 -57 3 -57 3 0 230 c0 127 1 233 3 238 4 9 84 9
99 -1z m-1409 -131 c2 -23 0 -32 -9 -29 -20 7 -33 34 -26 52 11 27 32 13 35
-23z m2 -201 c0 -82 -4 -150 -9 -150 -12 0 -22 83 -15 120 4 17 2 36 -5 43 -6
8 -8 17 -4 21 4 3 5 31 4 61 -2 44 1 55 13 55 14 0 16 -20 16 -150z m200 -200
c11 -7 -2 -10 -42 -10 -32 0 -58 4 -58 10 0 13 80 13 100 0z"/>
<path d="M2880 431 c0 -94 3 -171 8 -171 29 1 32 19 30 176 -3 142 -5 159 -20
162 -17 3 -18 -10 -18 -167z"/>
<path d="M2529 428 c0 -2 -2 -36 -3 -76 -2 -58 1 -75 12 -80 24 -9 42 28 42
83 0 51 -12 75 -37 75 -7 0 -13 -1 -14 -2z"/>
<path d="M4380 498 c0 -18 -3 -57 -6 -85 -6 -49 -5 -53 15 -53 20 0 21 5 21
85 0 69 -3 85 -15 85 -10 0 -15 -10 -15 -32z"/>
<path d="M3623 2500 c-13 -5 -23 -6 -24 -2 0 4 -7 -22 -15 -57 -7 -36 -11 -67
-9 -70 12 -12 25 19 27 64 1 27 3 44 6 37 5 -15 34 -16 49 -1 11 11 7 40 -6
38 -3 0 -16 -4 -28 -9z"/>
<path d="M3401 2387 c-9 -12 -8 -16 3 -20 19 -7 32 11 19 24 -6 6 -14 5 -22
-4z"/>
<path d="M3551 2374 c0 -11 3 -14 6 -6 3 7 2 16 -1 19 -3 4 -6 -2 -5 -13z"/>
<path d="M3337 2333 c-7 -33 9 -55 23 -33 13 19 9 52 -6 57 -6 2 -14 -9 -17
-24z"/>
<path d="M1754 2268 c-4 -6 4 -21 19 -34 15 -13 27 -30 27 -38 0 -8 20 -40 45
-71 25 -30 40 -55 34 -55 -6 0 -17 -7 -25 -15 -13 -13 -13 -17 -2 -27 26 -24
58 -38 86 -38 15 0 37 -7 49 -15 15 -11 43 -15 92 -13 44 1 76 -3 83 -10 7 -7
38 -12 69 -12 41 0 71 -7 106 -24 102 -52 166 -74 229 -81 21 -3 46 -13 142
-56 23 -10 50 -19 60 -19 9 0 39 -11 66 -25 27 -14 57 -25 66 -25 9 0 21 -5
28 -12 9 -9 12 -9 12 0 0 7 -4 12 -10 12 -5 0 -10 6 -10 14 0 8 -7 22 -16 30
-12 13 -20 14 -37 4 -20 -10 -21 -9 -9 5 11 13 10 16 -10 19 -13 2 -22 9 -21
16 2 6 -1 12 -6 12 -5 0 -8 8 -7 17 1 14 -10 19 -52 24 -29 4 -54 9 -55 10
-19 36 -29 47 -58 61 -19 10 -42 16 -52 14 -24 -6 -84 20 -120 50 -22 19 -40
24 -83 24 -30 0 -54 -4 -54 -9 0 -12 -30 -8 -38 6 -16 24 -81 46 -172 60 -19
2 -48 10 -65 18 -16 7 -46 16 -65 19 -44 8 -140 57 -140 72 0 5 -13 23 -30 39
-16 16 -30 34 -30 41 0 6 -7 15 -16 18 -21 8 -22 8 -30 -6z m161 -208 c3 -5 1
-10 -4 -10 -6 0 -11 5 -11 10 0 6 2 10 4 10 3 0 8 -4 11 -10z"/>
<path d="M3157 2223 c-13 -12 -7 -21 18 -25 19 -4 25 -1 25 13 0 19 -29 27
-43 12z"/>
<path d="M1680 2061 c0 -6 13 -11 29 -11 16 0 36 -7 45 -15 19 -19 45 -19 53
0 8 21 7 22 -64 30 -44 5 -63 4 -63 -4z"/>
<path d="M2860 1890 c0 -5 5 -10 10 -10 6 0 10 5 10 10 0 6 -4 10 -10 10 -5 0
-10 -4 -10 -10z"/>
<path d="M2950 1705 c0 -11 49 -55 62 -55 11 0 10 21 -1 39 -5 8 -16 11 -27 7
-10 -4 -21 -1 -26 6 -4 7 -8 9 -8 3z"/>
<path d="M4092 1670 c-12 -16 -31 -30 -42 -30 -23 0 -36 -18 -22 -32 6 -6 12
-6 16 1 4 6 17 11 30 11 33 0 58 32 48 59 -8 21 -8 21 -30 -9z"/>
<path d="M3100 1655 c0 -8 5 -15 10 -15 6 0 10 7 10 15 0 8 -4 15 -10 15 -5 0
-10 -7 -10 -15z"/>
<path d="M5193 1468 c-22 -29 -22 -35 1 -31 13 3 27 0 30 -6 11 -17 44 9 38
31 -5 21 -54 25 -69 6z m57 -8 c0 -5 -4 -10 -10 -10 -5 0 -10 5 -10 10 0 6 5
10 10 10 6 0 10 -4 10 -10z"/>
<path d="M4907 1431 c-2 -10 -1 -25 4 -32 12 -21 33 4 24 30 -8 26 -21 27 -28
2z"/>
<path d="M4960 1424 c5 -47 1 -56 -25 -52 -14 3 -25 1 -25 -3 0 -5 -7 -9 -15
-9 -8 0 -15 -4 -15 -10 0 -13 13 -13 27 1 8 8 16 7 31 -2 19 -12 24 -10 44 14
21 23 31 27 80 27 44 0 59 -4 67 -17 9 -16 12 -16 21 -3 5 8 10 27 10 43 0 21
-5 27 -21 27 -16 0 -19 -4 -14 -22 3 -13 3 -18 -2 -12 -4 6 -30 14 -58 18 -27
3 -63 9 -78 12 -24 6 -28 4 -27 -12z"/>
<path d="M4263 1397 c-5 -7 -32 -18 -62 -25 -29 -7 -70 -20 -90 -28 -20 -9
-53 -24 -73 -33 -21 -9 -38 -20 -38 -25 0 -9 70 2 85 14 14 11 113 25 151 22
24 -3 35 3 47 22 10 14 17 32 17 40 0 19 -28 28 -37 13z"/>
<path d="M4670 1390 c0 -5 5 -10 10 -10 6 0 10 5 10 10 0 6 -4 10 -10 10 -5 0
-10 -4 -10 -10z"/>
<path d="M4802 1353 c2 -9 9 -18 16 -21 18 -6 15 25 -4 32 -11 4 -14 1 -12
-11z"/>
<path d="M2288 1348 c9 -9 15 -9 24 0 9 9 7 12 -12 12 -19 0 -21 -3 -12 -12z"/>
<path d="M4850 1350 c0 -5 5 -10 10 -10 6 0 10 5 10 10 0 6 -4 10 -10 10 -5 0
-10 -4 -10 -10z"/>
<path d="M2450 1336 c0 -9 7 -16 16 -16 17 0 14 22 -4 28 -7 2 -12 -3 -12 -12z"/>
<path d="M5041 1294 c0 -11 3 -14 6 -6 3 7 2 16 -1 19 -3 4 -6 -2 -5 -13z"/>
<path d="M4460 1192 c0 -18 25 -31 40 -22 17 10 13 15 -17 24 -13 4 -23 3 -23
-2z"/>
<path d="M2763 1013 c-32 -6 -29 -20 5 -25 37 -5 52 0 52 18 0 14 -13 15 -57
7z"/>
<path d="M2549 964 c-17 -21 -4 -28 43 -25 49 2 50 3 43 23 -7 19 -71 20 -86
2z"/>
<path d="M2825 931 c-7 -12 12 -24 25 -16 11 7 4 25 -10 25 -5 0 -11 -4 -15
-9z"/>
<path d="M2267 844 c-13 -13 -7 -24 14 -24 11 0 19 5 17 12 -5 14 -22 21 -31
12z"/>
<path d="M566 722 c-48 -12 -64 -46 -68 -147 l-3 -90 48 -3 c43 -3 47 -5 47
-29 0 -24 -2 -25 -40 -19 -55 9 -63 -9 -54 -127 8 -114 15 -132 56 -154 30
-16 62 -17 348 -15 173 2 319 7 324 12 10 10 3 125 -17 250 -32 202 -43 270
-46 313 -1 4 -63 7 -139 7 -130 0 -138 -1 -151 -22 l-14 -22 -19 24 c-18 22
-27 24 -131 26 -62 2 -125 0 -141 -4z m208 -53 c57 -26 79 -140 36 -184 -19
-19 -19 -19 3 -43 18 -20 22 -36 23 -93 1 -81 -16 -123 -60 -150 -66 -40 -191
-12 -214 48 -6 15 -13 52 -16 80 -5 49 -3 53 18 59 13 3 40 4 62 2 l39 -3 1
-58 c0 -60 12 -84 38 -74 23 9 22 123 -1 149 -9 10 -21 18 -28 18 -6 0 -19 6
-29 13 -20 15 -12 47 13 47 9 1 26 9 39 19 17 15 22 30 22 66 0 42 -2 46 -22
43 -14 -2 -24 -11 -26 -23 -10 -66 -9 -65 -67 -65 -30 0 -56 5 -56 10 -3 25
-3 38 4 78 6 36 13 45 40 57 39 17 147 19 181 4z m349 -119 c10 -63 26 -164
37 -224 10 -60 16 -115 13 -123 -3 -9 -24 -12 -66 -10 l-62 2 3 36 c2 23 -2
40 -12 48 -26 22 -45 6 -48 -41 l-3 -43 -54 -3 c-73 -4 -82 0 -71 35 8 26 15
79 41 316 13 129 13 128 117 125 l87 -3 18 -115z"/>
<path d="M1001 497 c-6 -16 -11 -53 -11 -83 0 -52 2 -55 23 -52 20 3 22 8 19
55 -2 28 -7 64 -11 80 l-8 28 -12 -28z"/>
<path d="M1636 723 c-281 -3 -372 -6 -378 -16 -11 -17 -10 -303 1 -351 5 -21
14 -43 20 -49 6 -6 41 -12 78 -14 38 -1 70 -3 73 -3 3 0 5 -33 5 -72 l0 -73
110 0 110 0 1 170 c2 218 2 215 15 215 7 0 10 -58 8 -182 -1 -101 -1 -189 0
-196 1 -10 28 -12 114 -10 l112 3 -3 33 c-2 17 -1 32 2 32 3 0 20 -16 38 -36
l33 -35 110 -6 c107 -5 111 -4 150 22 61 40 65 55 65 268 0 230 -6 257 -65
286 -35 18 -57 21 -136 19 -52 -2 -260 -4 -463 -5z m544 -58 c15 -8 38 -30 49
-48 19 -31 21 -50 21 -182 0 -168 -9 -201 -67 -235 -68 -40 -178 -16 -215 48
-15 25 -18 55 -18 179 0 169 11 205 71 235 42 21 121 23 159 3z m-747 -115
c-3 -119 4 -147 31 -137 13 5 16 28 18 129 l3 123 62 3 62 3 3 -228 c2 -125 1
-234 -1 -241 -2 -9 -21 -12 -65 -10 l-61 3 -1 80 c-1 67 -4 81 -19 83 -9 2
-22 -1 -28 -7 -15 -15 -63 -14 -96 4 -23 11 -29 23 -35 61 -8 63 -8 239 1 248
4 4 34 6 68 4 l60 -3 -2 -115z m493 106 c3 -7 1 -29 -4 -47 -7 -29 -13 -34
-35 -31 l-27 3 -2 -193 -3 -193 -54 -3 c-30 -2 -58 1 -64 7 -6 6 -10 85 -11
193 l-1 183 -30 -1 c-16 0 -33 4 -37 10 -10 14 -10 70 -1 79 3 4 64 7 135 7
100 0 130 -3 134 -14z"/>
<path d="M2075 590 c-3 -5 -5 -78 -4 -160 2 -133 4 -152 20 -161 32 -17 33
-13 29 319 0 14 -36 16 -45 2z"/>
<path d="M4648 103 c6 -2 18 -2 25 0 6 3 1 5 -13 5 -14 0 -19 -2 -12 -5z"/>
</g>
</svg>
